<svg version="1" xmlns="http://www.w3.org/2000/svg" width="666.667" height="666.667" viewBox="0 0 500.000000 500.000000"><path d="M226.5 18.4c-6.8 1.6-10.9 3.1-13.5 4.9-1.4 1 .9 1.2 12.4 1.2 16.3.1 22.6 1.4 35.3 7.6 13.1 6.3 25.7 19.4 31.4 32.6 4.5 10.5 5.9 19.8 6.9 45.3.6 14.5 1.8 29.4 2.9 36.5 1.1 6.6 2.7 18.7 3.6 27 2.7 25.6 3.4 29.6 7 40.3 9.1 27.2 19.4 42.1 41.9 60.6 10.8 8.9 27.8 26.1 37.4 37.9 3.2 4 9.4 12.5 13.7 19 4.3 6.4 8 11.6 8.2 11.4.7-.8-1.9-16.2-3.8-22.2-1.1-3.5-3.8-8.9-6.2-12.2-4.2-5.5-7-7.9-28.2-22.9-11.7-8.3-17.6-13.6-25.4-22.8-15.4-18.2-24.7-36.6-33.1-65.3-6.2-21.2-7.2-27.1-8-49.3-1.3-33-4.5-60.7-8.5-72.3-1.7-4.9-.1-4.8 1.9.2 4.1 10.4 8 39.1 9.7 72.1 1.2 23.4 3.1 33.8 10.4 55.8 9.1 27.3 18.4 44.3 33.2 60.2 6.6 7.1 21.2 19.4 22 18.6.2-.2-1.1-3.6-2.8-7.7-1.7-4.1-5.2-13-7.9-19.9-5.3-13.9-12.1-28.1-18.2-37.7-2.2-3.5-4.1-6.3-4.3-6.3-.4 0 4 16.8 6.1 23.3.9 2.7 1.4 5.1 1.1 5.4-1.9 1.8-9.4-18-11.6-30.2-.6-3.3-1-14.3-1-24.5.2-24.6-1-29.1-12.6-50.5-8.9-16.3-10.9-21.6-14.4-38.8-4.7-22.3-7.7-32.1-13.3-43.7-7.8-15.8-19.4-26.3-35.4-32.2-7.5-2.8-27.6-3.5-36.9-1.4z"/><path d="M210.3 28.5c-14 3.9-21.9 12.4-29.2 31.4-6.2 16-6.5 19.4-6.9 67.1-.1 23.9-.3 48.4-.4 54.5-.2 14.1 1.4 20.1 10 37.2 7.3 14.9 8.7 21.4 5.8 27.1-1.7 3.2-6 6.1-9.3 6.3-4.2.1 2.4 1.8 7.5 1.8 4.6.1 5.8-.3 8.2-2.7 5.8-5.8 5-12.4-3.9-33.4-6.7-15.7-7.2-18.9-6.9-41.9.2-18.4 0-21.3-2.1-29.9-2.9-11.9-4.1-31.9-3.2-50.7.7-14.1.8-14.2 6.1-27.7 5.6-14.3 9.3-19.9 17.3-26.2 4.9-4 14.9-7.4 21.6-7.4 12.1 0 36.1 9.7 45.9 18.5 10 9 12.8 18.6 14.3 48.5.6 13.6 1.7 25 3 31 1 5.2 2.4 16.5 2.9 25 2.2 36 9.3 60.7 23.6 81.6 9.1 13.3 20.1 26 41.4 47.9 22.4 22.9 27.9 29.9 40.4 51.9 12.1 21 13.1 23.4 13 30.3v6.4l1.9-3.1c1.6-2.6 1.9-4.3 1.5-10.8-.3-4.4-1.5-10.2-2.7-13.4-3.4-8.9-12.8-22.8-25.2-37.6-14.6-17.5-22-24.9-34.6-35.1-17.3-13.8-28.8-30.2-37.5-53.4-5.3-14.4-6.7-20.5-8.3-38-1.3-14.4-3.1-25.3-6.1-37.2-.3-1.1-.9-14.8-1.4-30.5-1.2-33.2-2.7-42.8-8.5-53.9-7.6-14.4-25.4-27.9-43-32.6-8.6-2.3-28.6-2.9-35.2-1z"/><path d="M216 37.4c-12.8 3.6-20.9 11.9-27 27.9-4.2 10.9-5 16-5.1 30 0 8.9.5 14 2.2 20.5 2.7 11 8.7 26.3 14.5 36.9 6.5 12 8.5 20.7 9.1 39.5.5 13.6.8 15.8 2.3 16.3 3.3 1.1 8.4 7.2 11.5 14 5.1 11 8.7 15.2 15.8 18.5 10.6 5 20.9 5.8 30 2.4 2-.8 4.6-1.4 5.6-1.4 2.6 0 9.7-6.5 12.7-11.6 1.3-2.2 3.2-7.5 4.3-11.8 1.1-4.2 2.5-8.3 3.1-9.1.9-1.1.7-3.3-.9-9.7-3.3-13.4-5.1-26.2-6.1-43.8-.6-9.1-1.7-19-2.5-22-1.9-6.8-3.4-25.6-3.5-41.6 0-19-3.5-30.1-12.2-38.4-4.6-4.3-23.7-13.6-33.2-16-8.9-2.2-14-2.4-20.6-.6zM254 65c8.2 2.9 12.3 5.9 15.6 11.6 2.5 4.2 2.8 5.8 3.4 20.2.5 8.7 1.6 19 2.5 23 2 8.7 1.6 11-3 16.1-4.2 4.6-8.3 5.7-12.3 3.4-3.9-2.2-6-1.2-6.7 3.4-.3 2.1-1.2 5.1-2 6.6-3 5.7 1.1 6.5 5.1.9 3.3-4.4 7.4-8.2 9.1-8.2.7 0 2 1.1 2.9 2.5 3.3 5.1-1.1 14.7-12 26.4-9.3 9.9-15 12-23.1 8.7-4.1-1.7-19.9-16.3-23.7-21.9-1.6-2.2-2.8-5.3-2.8-6.9 0-2.3.4-2.8 2.5-2.8 1.8 0 4.1 1.6 7.7 5.5 2.8 3 5.5 5.5 5.9 5.5 2.1 0 .6-3.6-3.1-7.6-2.2-2.4-4-4.8-4-5.3 0-1.6-2.7-2-6.3-.9-4.1 1.2-9.9-1-12.4-4.9-1.7-2.6-2.8-21.7-1.2-20.7.5.3.9 3.8.9 7.9 0 4.1.4 8.5 1 9.9 1.4 3.7 6.8 6.8 10.5 6 4.5-.9 5-2 1.9-3.8-1.6-.8-2.3-1.5-1.6-1.6 2.7 0 5.4 2.3 8.8 7.6 3.4 5.3 5.4 6.8 5.4 4 0-1.7 3.8-1.8 5.8-.2 1 .7 1.6.5 2.3-.5.8-1.2 1.2-1.1 2.4.5 1.3 1.7 1.5 1.8 1.5.3 0-2.2 1.9-2.2 2.7 0 .5 1.3.8 1.2 1.5-.8.9-2.2 1-2.3 2-.6.9 1.8 1 1.8 2.5 0 1.3-1.6 1.4-1.6.9-.1-.3 1-.9 2.5-1.2 3.3-.3.8-.1 1.5.5 1.5s1.1-.8 1.1-1.9c0-2.4 2.3-4.3 4.2-3.6 1.7.7 2.8-2 2.8-7.2 0-3.9 3.9-7.4 7.3-6.5 2 .6 2 .7-.8 1.3-1.6.4-2.2.7-1.2.8 1 0 2.8.8 4 1.6 3.2 2.1 7 .7 10.6-3.9 3.5-4.4 3.6-4.8 1.5-13.6-.8-3.6-1.8-13.9-2.3-22.9-.9-15.8-1-16.5-3.8-20.5-3.9-5.6-7.9-8-17.1-10.5-8.9-2.4-29.2-2.9-38.3-1-9 1.9-16.4 10.9-19 22.9-.8 3.8-.8 6.8.2 12.3.7 3.9 1.2 7.8 1 8.6-.1.8.2 1 1 .5.8-.4 1-.3.5.5-.9 1.5-2.9.3-2.2-1.4.2-.7-.2-2.4-.9-3.8-6-11.6 1.1-33.2 13-39.5 5-2.6 9.3-3.1 26-2.8 13.6.3 17 .6 22.5 2.6zm-.7 26.7c.3.5-.5.8-1.8.8s-2.1-.3-1.8-.8c.2-.4 1-.7 1.8-.7s1.6.3 1.8.7zm-4.3 4.4c0 1.1-.7 1.9-1.7 1.9-1.5 0-1.6-.2-.3-1s1.3-1.2.1-3.2c-1.3-2.1-1.3-2.2.2-.9 1 .7 1.7 2.2 1.7 3.2zm6.3-1.2c-.3 1.3.1 2.1 1.4 2.4 1.5.4 1.5.5.1.6-2 .1-3.2-1.5-2.4-3.4.8-2.2 1.5-1.8.9.4zm-16.9 1.6c-.4.8-.3 2.2 0 3.1.6 1.5.8 1.5 3.1 0 3.7-2.4 3.7-2-.1 1.8-2.4 2.4-3.4 4.3-3.4 6.4 0 1.8-.6 3.2-1.6 3.6-1 .4-1.4 1.4-1.1 2.6.3 1.1.1 1.8-.4 1.4-.5-.3-.9-1.3-.9-2.3 0-.9-.6-2.3-1.2-3.1-1.1-1.2-1-1.2.4-.1.9.7 2.2 1 2.8.6 1.5-.9 1.2-4.5-.4-4.5-1.9 0-3.1-3.9-1.8-5.2.8-.8.9-.5.6.9-.7 2.7 1.4 4 3.3 2 1.2-1.2 1.2-1.8.2-3.4-1.1-1.8-.7-5.3.5-5.3.3 0 .3.7 0 1.5zm24.6-1.1c0 .2-.7.6-1.5 1-.8.3-1.5.1-1.5-.4 0-.6.7-1 1.5-1s1.5.2 1.5.4zm1.1 3.9c-1.9 1.9-1.2 3.7 1.4 3.7 1.4 0 2.8.7 3.1 1.5.7 1.7-1.2 4.5-3 4.5-.6 0-.3-.5.7-1.1 2.3-1.4 2.2-3.9-.3-3.9-1.4 0-2 .7-2.1 2.2-.1 1.7-.3 1.4-.9-1-.4-1.8-1.6-4.3-2.6-5.5-1.5-1.7-1.5-1.9-.2-.8 2 1.5 3.8.7 3.9-1.7 0-1.2.2-1.3.6-.4.3.8 0 1.9-.6 2.5zm-62.7-.8c-.4.8-.1 2.2.6 3 .7.8.9 1.5.5 1.5-1.7 0-3.3-3.5-2.3-4.7 1.4-1.7 1.9-1.6 1.2.2zm10.2 0c.4.8 1.4 1.5 2.3 1.5 1.9 0 4.1 1.9 4.1 3.4 0 .6-.5.3-1.1-.7-1.2-2-4.5-2.3-5.2-.4-.7 1.8 2.6 3.7 5.2 3 2.2-.6 5.1 1.2 5.1 3.1 0 .6-.5.3-1.1-.7-.8-1.3-1.8-1.7-3.5-1.3-1.4.4-3.5-.1-5.2-1.2-2.4-1.4-2.7-1.9-1.6-3 .7-.7 1.1-1.9.7-2.8-.8-2.2-3.8-1.2-3.7 1.3 0 1.2-.3 2-.8 1.7-1.3-.8-.9-4.2.5-4.7 2.3-1 3.8-.7 4.3.8zm-15.1 2.9c0 1.5-.4 2.1-.9 1.6s-.6-1.6-.3-2.4c.9-2.2 1.2-2 1.2.8zm2.5 3.5c-.5 1.1-1 3-1 4.3-.1 2-.2 2.1-1.1.6-.7-1.3-.5-2.4.7-4.3 1.9-2.9 2.9-3.4 1.4-.6zm65.8 8.9c.7.2 1.6-.7 2.1-2 .7-1.6 1-1.8 1-.6.1.9-.3 2-.9 2.3-.5.3-1 1.6-1 2.8 0 2.1-.1 2.1-1.3-.3-.8-1.4-1.8-2.4-2.4-2.3-.6.1-.8-.9-.5-2.5l.6-2.7.6 2.4c.3 1.4 1.1 2.6 1.8 2.9zm-42-2.6c.7.7 1.2 1.7 1.2 2.2 0 .6-.5.3-1.1-.7-.7-1.2-1.7-1.6-3.2-1.2-1.7.5-1.9.4-.7-.4 1.9-1.4 2.3-1.4 3.8.1zm-27.5 3.3c-.7 2.1-1.2 1.9-1-.4 0-1.1.5-1.8.9-1.5.4.3.5 1.1.1 1.9zm43.3 1.6c-.9 1.3-1.6 1.8-1.6 1.2 0-.7.5-1.5 1.1-1.8.6-.4.8-1.4.4-2.4-.5-1.2-.3-1.3.6-.4.9.9.8 1.7-.5 3.4zm-39.7-.3c0 1.1-.2 1.2-.6.4-.2-.6-.9-1-1.4-.7-.5.4-.6-.1-.3-.9.8-2 2.4-1.1 2.3 1.2zm23.9 2c.2 1.3-.3 2.5-1.2 2.8-.9.3-1.6 1.8-1.7 3.3 0 1.4-.3 1.9-.6 1.1-.2-.8-.7-2.1-.9-2.9-.4-1.2-.8-1.1-2.2.3-1.6 1.6-1.6 1.8.2 3.1s1.8 1.4-.3 1.2c-1.1-.1-2.1-.7-2.1-1.4 0-1.4-1-1.6-3.4-.7-1.9.7-2.1 3.1-.3 3.6.6.3-.3.5-2.1.5-2.5 0-2.9-.3-1.8-.9 2.2-1.2 2-2.8-.4-2.8-1.1 0-2 .4-2 .9 0 1.4-5.3-.3-5.6-1.7-.1-.7 0-.8.3-.2.6 1.2 4.3 1.4 4.3.1 0-1.4-2.8-3.3-3.9-2.7-.5.3-1.1-.1-1.4-.8-1.1-2.7 1.7-2.2 4.2.7 2.2 2.6 2.9 2.9 6.8 2.4 2.3-.2 5.5-1.3 7-2.3 1.6-1 3.6-1.7 4.6-1.6 1.1.2 1.7-.3 1.7-1.7 0-2.3-1.5-2.8-2.3-.9-.3.8-.6.5-.6-.5-.1-2.7 3.3-1.7 3.7 1.1zm21.2 0c-1.4.5-1.2 3.9.3 4.5.9.4.9.6 0 .6-1.7.1-3.6-3.6-2.3-4.4.8-.5.7-1.2-.2-2.2-1.2-1.5-1.1-1.5 1-.2 1.2.8 1.8 1.5 1.2 1.7zm16.4-1.5c-.2.7-1.4 1.9-2.7 2.6-2.1 1.3-2.1 1.2.2-1.3 2.7-2.9 3.3-3.2 2.5-1.3zm-11.1 4.7c-.6 2.4 2.2 3.9 4 2.1.9-.9.8-1.4-.3-2.1-1.3-.8-1.3-1 .1-1 2.8 0 2.9 2.6.3 4-2 1.1-2.7 1.1-4.2-.3-1-1-2.2-1.4-2.7-1-.4.5-.1-.2.6-1.5 1.7-2.7 2.9-2.9 2.2-.2zm14-1.3c-.7.2-1.9.2-2.5 0-.7-.3-.2-.5 1.2-.5s1.9.2 1.3.5zm-27.7 9.7c3.7 7.8 4 11.2 1.2 13-3 1.8-5.3-1.6-5.3-7.7 0-2.9-.4-6.9-.9-9-1.4-6.3 1.2-4.4 5 3.7zm-8.6-1.5c0 2.1.7 5.8 1.5 8.1 1.4 3.9 1.4 4.6 0 6.7-1.9 2.8-2.7 2.9-5 .3-1.5-1.6-1.7-3.1-1.2-8.3.7-7.3 2.3-12.1 3.7-11.2.5.3 1 2.3 1 4.4zm36 58c0 6.7-1 8-8 10.4-2.5.8-5.9 2.1-7.6 2.8-2.7 1.1-3.7.9-8.7-1.4-5.7-2.6-7.4-5-6.5-9.3.3-1.5 1.6-1.8 8.9-2 9.1-.3 15-2 18.2-5.5 2.7-2.9 3.7-1.5 3.7 5zm2.7 11.3c.9 1.5.5 6.6-.8 9-1.9 3.6-22.2 7.3-26.7 4.9-1.2-.6-2.7-3-3.4-5.2-1.1-3.7-1-4.3.7-5.5 1.2-.9 2.7-1.1 3.9-.7 4.1 1.5 13 .8 17.1-1.4 4.6-2.4 8.1-2.8 9.2-1.1zm.1 16c.2 1.4-.2 4.5-.8 6.7-1.2 4.5-3.4 5.6-14.1 6.7l-5.7.7-2.7-4.7c-3.7-6.3-3-7.6 4.2-7.6 4.1 0 7.3-.7 10.8-2.4 6.1-3 7.9-2.9 8.3.6z"/><path d="M261 147.7c-1.7 2.1-4 4.9-5.1 6.2-1.3 1.5-2.6 2.1-4 1.8-1.2-.3-2.2 0-2.6.9-.3.8-1.2 1.3-1.9 1-.8-.3-1.4.1-1.4 1 0 1.1-.6 1.3-2 .9-1.2-.4-2-.2-2 .6 0 .9-.3.9-1.4 0-1.1-.9-1.5-.9-1.8.1-.4 1.1-.8 1.1-2 0-1.3-1-1.7-1-2.1 0-.4 1-.9.9-2-.5-1.4-1.6-1.5-1.6-2.1.5-.3 1.3-.9 1.9-1.3 1.3-.5-.6-2.4-1.1-4.3-1.3-2.6-.3-4.8-1.6-8.5-5.3-6.8-6.6-9.8-6.2-6.1.9 1.5 2.9 19.7 20.1 23.3 22 7.1 3.8 15.7-.4 25.5-12.8 6.7-8.3 9.6-15 8.3-19.1-.9-2.9-3-2.3-6.5 1.8z"/><path d="M247 150.6c0 .8.5 1.2 1 .9.6-.4.8-1.1.5-1.6-.9-1.4-1.5-1.1-1.5.7zM224 151.2c0 .9.5 2 1 2.3 1.3.8 1.3-.5 0-2.5-.8-1.3-1-1.3-1 .2zM227.4 151.3c.3 1 .6 2.3.6 2.8s.5.9 1 .9c1.4 0 1.2-1.3-.6-3.6-1.4-1.7-1.5-1.7-1-.1zM232 152.2c0 1.6.5 2.8 1 2.8 1.3 0 1.3-2 0-4-.8-1.2-1-.9-1 1.2zM236 152.2c0 1.6.5 2.8 1 2.8 1.3 0 1.3-2 0-4-.8-1.2-1-.9-1 1.2zM240 152c0 1.1.4 2 .9 2s.7-.9.4-2c-.3-1.1-.7-2-.9-2-.2 0-.4.9-.4 2zM244.1 156.6c0 1.1.3 1.4.6.6.3-.7.2-1.6-.1-1.9-.3-.4-.6.2-.5 1.3zM225 156.7c0 .5.5 1.5 1 2.3.8 1.2 1 1.1 1-.8 0-1.2-.4-2.2-1-2.2-.5 0-1 .3-1 .7zM229.1 157.6c0 1.1.3 1.4.6.6.3-.7.2-1.6-.1-1.9-.3-.4-.6.2-.5 1.3zM240 157.1c0 .5.5.7 1 .4.6-.3 1-.8 1-1.1 0-.2-.4-.4-1-.4-.5 0-1 .5-1 1.1zM236.5 158c.3.5.8 1 1.1 1 .2 0 .4-.5.4-1 0-.6-.5-1-1.1-1-.5 0-.7.4-.4 1zM233.7 134.4c-.6 4 .6 7.1 2.4 6 1.2-.7 1.1-3.3-.5-6.9l-1.3-3-.6 3.9zM224.1 136.2c-.1 5.9 1.1 8.2 2.7 5.1.6-1.2.3-3.3-.9-6.3l-1.8-4.5v5.7zM257.2 184.6c-3.8 2.6-15.8 4.9-20.2 3.9-3-.7-3.1-.6-2.8 2.2.2 2.2 1.3 3.3 4.8 5 2.5 1.3 5.4 2.1 6.5 1.9 3.3-.8 13.9-4.7 14.8-5.5.5-.5.7-2.8.5-5.3l-.3-4.4-3.3 2.2zM255.5 200.7c-5.7 2.4-10.6 2.7-17.5 1.1-1.1-.2-1.4.5-1.3 2.5.4 5.2 1.9 6 10.3 5.3 13.1-1.2 17-3.2 17-8.8 0-3.4-.7-3.4-8.5-.1zM258.5 214.3c-2.4 1.3-6.4 2.3-10.2 2.5-7 .5-7.5 1.2-3.9 5.7l2.4 2.9 7.3-1.2c4.1-.7 7.7-1.6 8.1-2 1.2-1.2 2.2-10.2 1.2-10.1-.5 0-2.7 1-4.9 2.2zM182.4 120c.3 7.6 1.4 15.6 3.2 23.5 2.6 11.2 2.8 13.4 2.6 31.8-.3 22.9.4 27.1 7.1 42.8 2.4 5.7 4.7 11.1 4.9 11.9.3.8.9-.3 1.3-2.5s1.6-7.8 2.7-12.5c1.5-6.3 2-11.8 2-21.5-.1-16-2-26-6.6-35.7-2-4-3.4-6.4-3-5.3 1.7 5.8 2.2 15 1.4 25.1-.8 9.9-.1 21.8 1.5 26.1.2.7 0 1.3-.5 1.3-2.4 0-3.5-9.1-3.5-29-.1-17.1-.4-21.2-1.8-25-2.5-6.4-7.6-24-9.8-34l-1.9-8.5.4 11.5zM168.3 182c-1.3 2.5-5.6 8.6-9.6 13.5-4.1 5-8.5 10.9-10 13.1l-2.6 4.1 2.6 1.4c1.4.8 5.4 5 8.9 9.5s9.1 10.7 12.4 13.7c4.9 4.6 6.9 5.7 11.6 6.7 6.9 1.5 7.7.7 7-6.5-.3-3.5-2.5-9.2-7.3-19.1-7.3-14.8-9.2-21.1-10.2-33.4l-.6-7.5-2.2 4.5z"/><path d="M208.4 213.7c-.7 3.3-3.5 13.3-4.1 14.9-.2.6 1 1.7 2.7 2.4 3.7 1.5 8.2 6.6 11.4 12.8 5.9 11.4 14 14.8 33.9 14 8.4-.4 11.7-.2 11.4.6-1 3.1-32.3 2.3-37.5-.9-4.9-3.1-7.3-5.9-11.3-12.7-3.5-6-10.2-12.8-11.4-11.6-.3.2-.6 3.6-.8 7.5-.3 5.3-.9 7.8-2.6 10.2-5.5 7.7-13.4 7.9-28.1.8-10-4.8-15.4-9.2-19.7-16-1.4-2.3-3.7-5.4-5.1-7-2.7-2.8-7.2-3.7-7.2-1.4 0 1.7-7 16.1-12 24.7-2.2 3.8-4 7.8-4 8.9 0 3.9 7.6 19.6 16.7 34.6 5 8.2 11.2 19.3 13.8 24.5 2.6 5.2 4.9 9.6 5 9.8.2.2 1.2-.1 2.2-.6 1-.5 4.6-1.2 8-1.5 5.6-.6 6.2-.5 6.8 1.3 1.4 4.3-.2 5.7-6.5 6.2-3.3.2-6.2.7-6.5 1-.3.2 0 1.9.6 3.7 1.3 3.6.8 3.6 11.4-.8 5.8-2.4 7.2-2.7 8.4-1.6 1.1 1.1 6.3-.4 30.5-8.7 16-5.5 31.2-10.6 33.7-11.5l4.6-1.5 6.7-32.7c3.7-17.9 7-33.7 7.3-35.1.3-1.8.2-2.1-.5-1.1-1.5 2.1-9.9 2.5-17.5.7-14.2-3.3-20.9-8.9-27.9-23.3-2.5-5.2-5.1-9.1-7.3-10.7-4.2-3.2-4.3-3.2-5.1.1zm-21.3 115.5c2.7 1.7 4.8 3.6 4.6 4.2-.2.6-2.7 1.2-5.5 1.4-4.2.2-5.3 0-6.1-1.7-1.1-1.9 0-7.1 1.5-7.1.3 0 2.8 1.4 5.5 3.2z"/><path d="M182 330.3c0 2.5.4 2.7 3.8 2.7 3.2-.1 3.5-.2 1.7-1.2-1.1-.6-2.8-1.8-3.7-2.6-1.7-1.4-1.8-1.3-1.8 1.1zM296.3 212.6c-.6 1-1.4 4.1-1.7 6.7-1 6.8-3.8 12.8-8.1 17.6l-3.7 4.1 3.8.1c2.2 0 6.2.6 8.9 1.3l5 1.1 2.1-4c3.7-6.9 3.8-8.1.8-14.3-1.5-3.1-3.5-7.7-4.4-10.1-1.5-3.9-1.9-4.2-2.7-2.5zM140.6 217.2c-.8 1.3-1.7 3.3-2.1 4.5-.6 2.1-.3 2.3 3.4 2.3 3.5 0 4.4.5 8.3 5.1 14.1 16.7 18.6 19.9 27.4 19.9 2.7 0 5.6-.5 6.4-1 1.1-.7.7-1-1.7-1-1.7 0-4.4-.5-5.8-1-4.1-1.5-14-11.6-20.7-20.8-3.3-4.5-6.8-8.7-7.8-9.2-3-1.6-5.9-1.2-7.4 1.2zM307 236.4c0 .7-1 2.9-2.3 4.7l-2.3 3.4 3.8 1.8c2.1 1 5.8 3.7 8.2 6l4.5 4.2-3.7 18.7-3.8 18.7 2.3 7.8 2.4 7.8-2.2 1.7c-1.2 1-2.7 1.8-3.4 1.8-.7 0-1.5.9-1.8 2-.5 2 .7 2.8 1.7 1.1.7-1 5.6-.9 7.4.2.6.5 1.2 2.3 1.2 4.2 0 2.7.6 3.7 3.5 5.5 1.9 1.2 4.7 4.1 6 6.5 2 3.4 3.3 4.4 6 4.9 4.4.9 10 6.4 12.6 12.2 1 2.5 2.8 9.5 3.9 15.7 2.6 13.7 5 21.3 9.4 29.5 1.9 3.5 2.9 6.1 2.3 5.9-1.4-.4-7.2-10.8-9.7-17.4-1.1-2.9-2.9-10.6-4-17.2-1.9-11.4-4.3-18.7-7.2-22.1-2-2.4-6.1-5-7.9-5-1.4 0-1.5.5-.3 5.2 1.8 6.9 1.8 20.4-.1 30.3-.9 4.4-2 14.4-2.5 22.2-1 15.4-2.7 21.2-7.7 26.5l-2.7 2.8h6c3.2 0 11.2.7 17.7 1.7 15.1 2.1 22.7 1.1 33.6-4.4 9.2-4.6 13.1-9.3 18-22 1.9-4.8 5.1-12.6 7-17.3 5.3-13 4.9-16.5-3.3-32.6-7.3-14.4-17.5-30.9-24.3-39.3-2.4-3.1-9.4-10.3-15.5-16-15.8-15-35.9-37.9-44-50.4-6.7-10.2-8.8-12.4-8.8-9.3zm17.3 56.1c-.5 13.2-.4 14.4 2.2 22.3 1.4 4.6 2.4 8.6 2.1 8.9-.9.9-5.6-10.5-6.7-16.1-.7-3.5-.6-7.8.2-13.7.6-4.8 1-11.6.7-15-.4-5.9-.4-6.2.8-3.4 1 2.2 1.2 6.8.7 17zm37.7 31.6c1.1.8.3.9-3.2.6-2.7-.3-4.8-.1-4.8.4s1 .9 2.3.9c1.2 0 2.9.5 3.7 1 1 .7-.8 1-5.9 1-4.1 0-10.1.5-13.3 1.2-4.5.9-6.1.9-7 0-.9-.9-.6-1.2 1.4-1.2 1.4 0 5-1.1 8-2.5 5.7-2.7 15.9-3.4 18.8-1.4zm26.2 19.6c3.4 4.3 10.4 18.1 9.5 18.9-.3.3-1.8-1.8-3.3-4.8-3.8-7.5-7.8-13.2-15.1-21.1-3.5-3.8-6.3-7.5-6.3-8.3 0-1.4 9.1 7.7 15.2 15.3zm-13.6-.2c7.9 7.8 13.4 14.3 13.4 15.8 0 .5-19.8-19-22.1-21.8-.9-1.1-2-3.1-2.3-4.5-.6-2.3-.6-2.4.6-.5.7 1.1 5.4 6 10.4 11zm-12.7 8.9c4.7 3.5 7.7 7.9 10.7 16 3.5 9.2 7.3 16.8 11.7 23.3 3.9 5.8 3.3 7.3-.7 2-5.1-6.7-9.2-14.6-12.4-23.8-1.8-5.2-4.1-10.3-5.1-11.4-3.9-4.5-7.3-6.8-10.8-7.5l-3.8-.8 3.6-.1c2.3-.1 4.6.7 6.8 2.3zm22 12.5c7.9 8.5 13.5 15.4 11.6 14.3-2.5-1.3-8.4-7.6-11.5-12.1-1.3-1.8-3.7-3.9-5.4-4.7-2.8-1.2-2.9-1.3-.7-1.4 1.5 0 3.7 1.4 6 3.9z"/><path d="M273 244.1l-3.5 1-6.9 33.2c-3.8 18.3-7.1 34-7.4 34.9-.3 1.3 2.1.8 13.7-2.9 13-4.3 17.1-4.9 14.4-2.2-.5.5-5 2.5-9.8 4.3-4.8 1.8-8.3 3.6-7.7 4 .5.3 2.9-.1 5.2-.9 2.4-.8 4.5-1.3 4.7-1.1.2.2-1.8 1.1-4.6 2.1-3.4 1.1-5.6 1.3-6.7.7-1.9-1.1-10.4 1.3-10.4 2.9 0 1.3 1.4 1.1 6-.7 2.3-.9 4.3-1.4 4.5-1.2.3.3-9.3 4-21.2 8.2-12 4.3-22.2 8.2-22.8 8.7-1 1-1.2 1.1 36-12.1 25.6-9.1 30.2-10.9 23.8-9.5-4.7 1-4.1-.2.8-1.5 2.7-.8 4.9-.8 6.7-.1 2 .7 2.2 1 .8 1-2.5.1-15.6 5.3-15.6 6.2 0 .4 2.9-.2 6.6-1.3 3.6-1.1 6.7-1.8 7.1-1.5 1 1.1-.9 2.8-2.6 2.2-1.3-.4-90.5 30.6-92 32-.1.2-.1.8 0 1.4.4.8 13.1-3.4 18.1-6 1-.5 2.6-.9 3.6-.9s2.2-.4 2.8-.9c.5-.6 11.3-4.8 23.9-9.4 12.7-4.7 27.4-10.1 32.8-12.2 6.6-2.4 10.2-3.3 11-2.7.7.6 2.3 1.2 3.7 1.5 2.2.4 2.1.4-.7.6-1.7 0-3.3-.4-3.5-1-.2-.6-7.1 1.5-17 5.2-9.2 3.4-16.5 6.5-16.3 7 .4.6-12.5 65-14.1 70.1-.7 2.3 5.4 8.8 11.3 12 6.1 3.3 15.3 5.2 21.4 4.4 5-.7 13.6-3.1 15.7-4.4 1.4-.9 17.6-81.7 17.4-87.2 0-1.9.7-4.3 1.6-5.5 1.6-1.9 1.6-1.9 0-.6-2.3 1.7-4.8-.1-4.8-3.4 0-1.2-.6-2.8-1.4-3.5-.8-.6-1.3-1.7-1-2.5.3-.7-1.3-3-3.6-5.1-3.1-2.9-5.1-3.9-7.5-3.9-1.8 0-4.1-.8-5.2-1.7-1-.9-2.7-1.8-3.7-1.9-1.1-.2-2.1-.9-2.3-1.6-.7-2 3.3-3.4 7.4-2.5 3.4.7 3.8 1.1 4.2 4.2l.4 3.5.6-3c.9-4.2 3-4.1 7.9.5 4.8 4.5 5.2 4.7 5.2 2.5 0-2.9-10.5-11.9-15.3-13-1.6-.4-3.3-1.5-3.9-2.5-.7-1-1.9-1.5-3.4-1.2-1.7.3-3.3-.6-6-3.4-2-2.2-3.3-3.3-2.9-2.5.6.9.4 1.2-.3.7-.7-.4-1.2-1.6-1.2-2.7 0-1.6.7-1.9 3.9-1.9 6.2 0 9.1 1.5 9.2 4.7 0 2.7.1 2.7.9.5 1-2.3 3.4-3 4.5-1.2.9 1.5 8.2 5 8.9 4.3.3-.4.6-.2.6.4 0 1.3 4.6 2.3 5.7 1.3.4-.4 2.2-1 4-1.3 2.4-.5 3.5-.2 4.2 1.1.5.9 1.1 1.5 1.4 1.2.6-.7 5.7-28 5.7-30.5 0-3.7-12-11.3-21-13.4-5.5-1.3-17.2-1.2-22 0zm2 8.9c1.3.8 1.3 1-.2 1-.9 0-2-.5-2.3-1-.8-1.3.5-1.3 2.5 0zm23.8 3.7c2 4.7 2.1 4.8.2 6.7-3 3-4.7.8-4.4-5.6.3-6.3.2-5.8 1.3-5.8.5 0 1.8 2.1 2.9 4.7zm-10.6.5c-1.7.8-2.6.8-3.4 0-.9-.9-.4-1.2 2.3-1.1 3.2 0 3.3.1 1.1 1.1zm-7.9 4.2c2.3 1.8 4.8 3.1 5.5 2.9 1-.4 1.1-.1.3 1.3-.5 1.1-1.2 2.7-1.5 3.6-.6 2.1-4.9 2.4-6.4.5-.5-.6-1.3-2.6-1.6-4.3-.6-2.5-1.1-3.1-2.5-2.7-1.1.3-2.2 0-2.5-.5-.4-.6.2-.8 1.4-.5 1.5.4 2 0 2-1.6 0-2.8.4-2.7 5.3 1.3zm32 .3c-.7.2-1.9.2-2.5 0-.7-.3-.2-.5 1.2-.5s1.9.2 1.3.5zm-7 10.7c3.8 7.6 4.4 10 2.7 11.1-1.9 1.2-4.5-1.4-6.2-6.2-1-2.7-2.9-6-4.2-7.3-2.4-2.1-2.4-2.4-.8-3.6 3.4-2.6 4.8-1.6 8.5 6zm-9.9 2.2c6.8 6.7 8.3 10.5 4.4 11.2-2.1.4-14.2-10.5-14.6-13.2-.3-1.5 2-4.6 3.3-4.6.1 0 3.1 3 6.9 6.6zm-22.9-3.6c1 1.1 1.4 2 .8 2-.5 0-1.8-.9-2.8-2-1-1.1-1.4-2-.8-2 .5 0 1.8.9 2.8 2zm38.5-1c0 .5-1 1-2.2.9-2.2 0-2.2-.1-.3-.9 1.1-.5 2.1-.9 2.3-.9.1-.1.2.3.2.9zm-28.3 4.6c-.3.3-1.2.4-1.9.1-.8-.3-.5-.6.6-.6 1.1-.1 1.7.2 1.3.5zm-14.3 16.3c-.2.3-1.2-.3-2.2-1.3-1.6-1.7-1.6-1.8.5-.5 1.2.7 2 1.5 1.7 1.8zM279 293c1.3.9 1.3 1 0 1-.8 0-2.2-.5-3-1-1.3-.9-1.3-1 0-1 .8 0 2.2.5 3 1zm12 2c0 .5-.4 1-.9 1-.6 0-1.3-.5-1.6-1-.3-.6.1-1 .9-1 .9 0 1.6.4 1.6 1zm-23.4 4.7c-.6.6-3.6-.9-3.6-1.8 0-.5.9-.4 2 .3 1 .7 1.8 1.4 1.6 1.5zm10.7 2c-.7.2-2.1.2-3 0-1-.3-.4-.5 1.2-.5 1.7 0 2.4.2 1.8.5zm-12.6 6.9c-.7.7-3.7-.7-3.7-1.7 0-.6.9-.5 2.1.1 1.1.7 1.9 1.4 1.6 1.6zm32.6 14.1c-.7.2-1.9.2-2.5 0-.7-.3-.2-.5 1.2-.5s1.9.2 1.3.5zm-24.5 5c-1 .2-2.6.2-3.5 0-1-.3-.2-.5 1.7-.5s2.7.2 1.8.5zm11.7 2.3c-.3.5-1.2 1-2 1s-1.7-.5-2-1c-.4-.6.5-1 2-1s2.4.4 2 1zm11.5 2.2c0 .4-.9.8-2 .8s-2-.4-2-.8.9-.8 2-.8 2 .4 2 .8zm-36.9 3.6c-.7.2-1.8-.1-2.3-.6-.8-.8-.4-.9 1.3-.5 1.3.4 1.8.8 1 1.1zm12.9 2.8c0 .2-1.3.4-3 .4-1.6 0-3-.4-3-.8 0-.5 1.4-.7 3-.4 1.7.2 3 .6 3 .8zm9 1.4c1.2.8 1.1 1-.7 1-1.3 0-2.3-.5-2.3-1 0-1.3 1.1-1.3 3 0zm12 2.6c0 .2-.9.4-2 .4s-2-.4-2-.9.9-.7 2-.4c1.1.3 2 .7 2 .9zm-36.4.9c1.8 1.3 1.8 1.4-.4.8-1.2-.3-2.5-.9-2.8-1.4-.8-1.4 1-1.1 3.2.6zm10.9 4.5c.8 1.3-.5 1.3-2.5 0-1.3-.8-1.3-1 .2-1 .9 0 2 .4 2.3 1zm10.6 2.8c-.7.2-1.8-.1-2.3-.6-.8-.8-.4-.9 1.3-.5 1.3.4 1.8.8 1 1.1zm12 2c-.7.2-1.8-.1-2.3-.6-.8-.8-.4-.9 1.3-.5 1.3.4 1.8.8 1 1.1zm-34.4 1.8c-.7.7-3.7-.7-3.7-1.7 0-.6.9-.5 2.1.1 1.1.7 1.9 1.4 1.6 1.6zm10.8 3.4c.8 1.3-1.5 1.3-3.5 0-1.2-.8-1.1-1 .7-1 1.2 0 2.5.4 2.8 1zm11.8 2.2c-.6 1.1-4.3 1-4.3-.1 0-.5 1.1-.8 2.4-.7 1.3 0 2.2.4 1.9.8zm9.4 1.4c-.3.3-1.2.4-1.9.1-.8-.3-.5-.6.6-.6 1.1-.1 1.7.2 1.3.5zm-32.7 2c0 .2-1.1.4-2.5.4s-2.5-.4-2.5-.9c0-.4 1.1-.6 2.5-.3 1.4.2 2.5.6 2.5.8zm10.3 4.1c-.7.2-2.1.2-3 0-1-.3-.4-.5 1.2-.5 1.7 0 2.4.2 1.8.5zm10.1 2.5c-.3.4-1.2.8-2 .8s-1.4-.4-1.4-.8.9-.8 1.9-.8c1.1 0 1.7.4 1.5.8zm10.9 1.5c-.7.2-2.1.2-3 0-1-.3-.4-.5 1.2-.5 1.7 0 2.4.2 1.8.5zm-35.4 3.1c-1.4.5-3.9-.6-3.9-1.7 0-.5 1.1-.4 2.5.2 1.3.7 2 1.4 1.4 1.5zm11.2 4c-1.3.2-2.7 0-3.2-.5-.6-.6.3-.7 2.3-.4 2.8.4 2.9.6.9.9zm12.2 1.9c-.7.2-2.1.2-3 0-1-.3-.4-.5 1.2-.5 1.7 0 2.4.2 1.8.5zm10 2c-.7.2-1.9.2-2.5 0-.7-.3-.2-.5 1.2-.5s1.9.2 1.3.5zm-36.6 2.9c-.7.7-3.7-.7-3.7-1.7 0-.6.9-.5 2.1.1 1.1.7 1.9 1.4 1.6 1.6zm11.6 3.5c-.8.8-1.6.8-3 0-1.6-.9-1.4-1 1.2-1.1 2.1 0 2.6.3 1.8 1.1zm13 2.1c-.2.5-1.3.8-2.4.8-1 0-1.9-.3-1.9-.8 0-.4 1.1-.7 2.4-.7 1.3 0 2.2.3 1.9.7zm10 1.5c-.7.2-1.9.2-2.5 0-.7-.3-.2-.5 1.2-.5s1.9.2 1.3.5zm-36.3 3.1c-.7.3-1.9-.3-2.8-1.3-1.6-1.5-1.5-1.6 1.2-.4 1.5.7 2.3 1.5 1.6 1.7zm13 3.8c0 .2-1.1.4-2.5.4s-2.5-.4-2.5-.9c0-.4 1.1-.6 2.5-.3 1.4.2 2.5.6 2.5.8zm10.8 2.1c-1 .2-2.6.2-3.5 0-1-.3-.2-.5 1.7-.5s2.7.2 1.8.5zm11.5 0c-.7.2-2.1.2-3 0-1-.3-.4-.5 1.2-.5 1.7 0 2.4.2 1.8.5zm-37.4 3.1c-1.4.5-3.9-.6-3.9-1.7 0-.5 1.1-.4 2.5.2 1.3.7 2 1.4 1.4 1.5zm10.6 4.2c1.9.8 1.9.9-.2.9-1.2.1-2.5-.4-2.8-.9-.7-1.2.2-1.2 3 0zm10.8 2.7c-.7.2-1.9.2-2.5 0-.7-.3-.2-.5 1.2-.5s1.9.2 1.3.5zm13 0c-.7.2-1.9.2-2.5 0-.7-.3-.2-.5 1.2-.5s1.9.2 1.3.5z"/><path d="M296.7 259.5c-.8 2-.4 2.9 1.1 2.4.5-.2.6-1.3.2-2.3-.6-1.9-.7-1.9-1.3-.1zM278.3 263.3c.4 1 .7 2.7.7 3.8 0 1.2.7 1.9 2 1.9 2.8 0 2.5-2.2-.7-5.1-2.1-1.9-2.5-2-2-.6zM299.2 267.7c3 6.8 7.1 14.3 7.6 13.9.7-.8-6-14.6-7.1-14.6-.5 0-.7.3-.5.7zM287.2 271.2c-.8.8.6 2.7 5.1 6.9 3.4 3.3 6.5 5.9 7 5.9 2.1 0 .1-3.2-5.1-8.3-4.3-4.1-6.2-5.3-7-4.5zM120.8 254.7c-2.4 2.8-6.8 16.9-6.8 21.9 0 5.3-.3 4.6 15.5 32.4 6.8 11.8 13.3 23.6 14.6 26.2 1.3 2.7 2.6 4.8 3.1 4.8.4 0 1.7-1.4 3-3 2.3-3.2 4.6-3.8 6.6-1.8 2 2 1.3 4.1-2.8 8.2l-3.8 3.9 1.6 3.3c2.1 4.5 5.2 4.4 6.6-.2.4-1.2 1.5-2.9 2.5-3.8 1.7-1.6 1.8-2 .5-4.4-.8-1.5-4.5-9.2-8.2-17.2-3.8-8-9.5-19.2-12.9-25-9.6-16.8-18.3-34.4-19-38.3-.4-2.5 0-4.4 1.1-6.2 1.9-2.8.7-3.4-1.6-.8zM273.2 282c2.6 3.6 4.4 3.8 5 .6.5-2.5-1.1-3.6-5.5-3.6-1.6 0-1.5.3.5 3zM283 282.9c0 .5-.3 1.6-.6 2.4-.4 1.1.8 2.1 4.2 3.7 2.7 1.1 5.7 2.8 6.7 3.7 1.6 1.5 1.9 1.5 2.7.3 1.4-2.1 1.2-4-.2-4-.7 0-3.9-1.6-7-3.5-3.2-1.9-5.8-3-5.8-2.6zM306 289.2c0 3.4 5 18.1 6.8 19.8 1.3 1.3 1.4 1.3 1 0-.3-.8-1.8-6.1-3.4-11.7-2.8-9.9-4.4-12.8-4.4-8.1zM301.3 290.2c1.4 5.9 7.1 20.8 7.8 20.8 1.3 0 1.2-.9-2.1-10.5-1.6-4.9-3-9.7-3-10.7s-.7-1.8-1.6-1.8c-1.2 0-1.5.6-1.1 2.2zM115 297.3c-1.8 6.1-7 16.1-17.3 33.2-10.4 17.4-13 22.8-14.7 31-1.3 6.4-1.6 26-.4 35.1.8 6.5 3.9 10.9 17.7 24.9l8.8 9-.6-12.5c-.3-6.9-1.5-19.5-2.6-28-1.2-9.1-1.8-17.3-1.4-20 2-14.1 13.8-27 24.6-27 6 0 10.1 3.2 12.5 9.8.9 2.6 2.2 5.1 2.9 5.7 1.9 1.7 3.7 5.6 3.1 7-.3.9 0 1.2.8.9.7-.3 2.1.2 3 1.1 1.4 1.5 1.6 1.5 1.8.1 0-.9.1-2.1.2-2.6.1-.6-1-1.6-2.4-2.3-2.1-1.1-2.5-2-2.5-5.7 0-4-.3-4.5-2.5-4.8-1.4-.2-3.1-.9-3.7-1.4-1.7-1.4-1.6-5.3.1-6.7 1.1-.9-.3-4.2-7.6-18.4-11.4-21.8-16.7-31.5-17.7-32.1-.4-.3-1.4 1.4-2.1 3.7zM298.5 296.1c-.4.5 0 1.8.8 2.7.8.9 2.7 4.8 4.2 8.5s2.9 6.6 3.1 6.4c.4-.3-2.5-10-4.8-16-1.1-2.8-2.2-3.4-3.3-1.6zM280.1 299.1c2.9 2.2 3.9 2.4 3.9.5 0-.8-1.3-1.6-3.1-1.8l-3.1-.5 2.3 1.8zM289 299.9c0 .9 5.7 7.1 6.6 7.1 1.5 0-.2-3-3.1-5.3-1.9-1.5-3.5-2.4-3.5-1.8zM274.5 309.4c-14 4.6-87 29.9-87.4 30.2-.2.2-.2.7.2 1 .3.3 2-.1 3.9-.9 1.8-.9 4.9-1.9 6.8-2.3 1.9-.4 3.7-.8 4-.9.3-.1 1.6-.7 3-1.3 1.4-.6 15.1-5.5 30.5-10.7 15.4-5.3 31.8-11 36.4-12.6 13.4-4.7 15.6-6.8 2.6-2.5zM298 307.9c0 .5.7 2.5 1.5 4.4.8 2 1.5 4.8 1.5 6.2 0 1.4.5 2.5 1.1 2.5 1.2 0 .9-2.7-1.2-10.2-.8-3.3-2.9-5.4-2.9-2.9zM304 316c0 .5.5 1 1.1 1 .5 0 .7.5.3 1.2-.4.7-.3.8.5.4.9-.6.9-1.1 0-2.2-1.4-1.7-1.9-1.8-1.9-.4zM311.5 323.5c1 9.2 2.7 13.9 2 5.6-.3-3.5-.5-7.7-.5-9.2 0-1.6-.5-2.9-1.1-2.9-.8 0-.9 2-.4 6.5zM315 320c0 1.6.5 3 1 3 .6 0 1-1.4 1-3 0-1.7-.4-3-1-3-.5 0-1 1.3-1 3zM261.6 322.2c-8.4 3-9.3 3.5-8.4 4.3.7.7 18.8-5.8 18.8-6.7 0-1.2-1.8-.8-10.4 2.4zM307 320.9c0 1.1.5 2.3 1 2.6.6.4.8 2.1.5 3.8-.6 3.1 1 9.5 2.1 8.4.8-.8-1.7-16.7-2.7-16.7-.5 0-.9.9-.9 1.9zM234 326.1c-9.1 3.2-16.9 6-17.5 6.2-.5.2 0 .6 1.1.9 2.5.6 35.6-11.1 34.8-12.3-.7-1.2.2-1.5-18.4 5.2zM304.7 329.7c1 8.2 2.1 9.2 1.9 2.1-.1-4.6-.5-6.8-1.3-6.8-.9 0-1.1 1.3-.6 4.7zM231.6 333c-10.4 3.8-19.6 7.6-20.4 8.3-.8.8 7.5-1.7 18.5-5.6 10.9-3.9 20-7.5 20.1-7.9.2-.5.9-.5 1.4-.2.7.4.8.2.4-.4-.4-.7-.8-1.2-.9-1.2-.1.1-8.7 3.2-19.1 7zM320.4 328c1.7 1 4 3.6 5.3 5.7 2 3.3 2.3 5.2 2.3 13.4 0 5.3-.7 13.2-1.5 17.5-2.2 12-3.5 22.6-4.5 36-1.2 17-3.5 21.4-12.3 23.4l-3.2.7 3.6.7c11.3 2.3 18.8-9.4 18.9-29.5 0-4.2.9-13 2.1-19.5 2.7-15.3 2.3-29.2-1-37.7-2.4-6.2-8-12.7-10.9-12.7-1.2 0-.8.6 1.2 2zM168 329.7c-5 .5-7.1 1.8-6.4 3.8.4 1 1.2 1.1 3.1.4 1.3-.5 4.2-.9 6.4-.9 3.2 0 3.9-.3 3.9-2 0-1.1-.6-1.9-1.2-1.8-.7.1-3.3.3-5.8.5z"/><path d="M318 331.8c.1 2.4 2.4 5.2 4.4 5.2 2 0 2-.5 0-3.5s-4.4-4-4.4-1.7zM232 339c-15.4 5.9-15.5 5.9-10.2 5.9 3.5.1 5.2.5 5.2 1.3 0 2-7 5.5-12.3 6.3-4.3.7-4.7.6-5.8-1.9-.7-1.4-1.6-2.6-2.1-2.6s-.4 1 .3 2.1c.6 1.2.9 3.2.6 4.5-.4 2.4-.3 2.4 1.9.9 2.6-1.7 8.4-2.1 8.4-.5 0 1.5-9.2 8.1-10.9 7.8-1-.2-1.6-1.4-1.6-3.1.1-2.3-.3-2.7-2.6-2.7-3.4 0-15.6 3.7-16.4 5-.3.6-1.5 1-2.5 1s-2.5.7-3.4 1.5c-.8.8-2.2 1.5-3 1.5-1.8 0-2 .8-.7 2.9.8 1.2 1.2 1.2 2.5.2 2.2-1.9 4.6.2 4.6 4 0 2.3-.5 2.9-2.1 2.9-1.5 0-1.9.4-1.5 1.6.3.9.6 2.1.6 2.7 0 .7.5.4 1.1-.6.5-.9 1.9-1.7 3.1-1.7 1.1 0 3.8-.5 5.9-1.1 3-.9 4.2-.9 5.4.1 1.2 1 1.5 1 1.5 0 0-2.3 3.4-3.9 8.3-4 5.5 0 5.9 1 1.5 3.9-1.8 1.1-4.4 2.8-5.7 3.8-2.2 1.6-2.4 1.6-3.6 0-1.2-1.6-1.3-1.6-1.7.1-.4 1.5-1.8 2-6.7 2.5-3.5.3-6.5.7-6.7 1-.2.2.2 3.3 1 6.8s2.4 13 3.5 21c2.4 16.5 4.5 23.9 10.2 35.4 4.2 8.4 13.8 22.4 20.2 29.5l3.9 4.2 15.6.5c16.7.6 33.3-.6 46.6-3.5l7.8-1.7 1.9-7.3c1.2-4.9 3.4-9.6 6.4-14.2 5.9-8.9 8.3-14.4 9.1-21.1l.6-5.4-3.5-1.7c-6.7-3.2-12.6-13.9-13.5-24.5-.2-3.5-.8-6.3-1.1-6.3-.4 0-1.6 4.6-2.7 10.1l-1.9 10.1-4.7 1.9c-11.9 4.7-24.9 4.4-35-.7-4.8-2.4-10.9-7.9-12.6-11.1-.6-1.2 1.4-12.9 6.4-36.8 4-19.3 7.4-35.3 7.4-35.8 0-1.1-.6-.9-17 5.3zm-27.6 22.7c.7 1.7-1 4.3-2.8 4.3-.6 0-3.7 1.6-6.9 3.5-7 4.2-9.7 4.5-9.7 1.1 0-2.8 1.3-3.9 6.1-5.5 2-.6 5-2.2 6.8-3.6 3.4-2.5 5.5-2.4 6.5.2z"/><path d="M200.5 362c-.9 1.4-10.1 6-12 6-.8 0-1.5.7-1.5 1.5s.2 1.5.5 1.5c1.8 0 15.4-8.3 14.9-9.1-.7-1.2-1.1-1.1-1.9.1zM210.2 335.9c-5.3.7-7.5 2.2-6.5 4.8.7 1.9 3.6 1.6 6.6-.7 1.4-1.1 2.9-2 3.4-2s1.8-.7 2.9-1.5c2.1-1.6 2.1-1.6-6.4-.6zM316.1 336.4c-.8.9-2 1.6-2.8 1.6-.8 0-1.3.6-1.1 1.2.3.7 2.2 1.3 4.4 1.4 2.1 0 4.9.4 6.2.8 1.6.6 2.2.3 2.2-.8s-.9-1.6-3-1.6c-2.2 0-3.3-.6-3.8-2.1-.7-1.9-.9-1.9-2.1-.5zM148.3 341.5c-5.4 5.4-6.4 7.8-3.8 8.9.9.3 2-.4 2.9-2.2.8-1.5 3-4.3 5-6.1 3.6-3.5 4.7-6.2 2.4-6-.7 0-3.7 2.4-6.5 5.4zM199.7 337.8c-1 .2-1.6.9-1.4 1.5.3.7 1 1.1 1.7.9.8-.2 1 .3.6 1.5-.5 1.3-.4 1.5.4.7 1.8-1.8.8-5-1.3-4.6zM303.1 337.1c-4 18.7-5 25.7-4.2 27.9.6 1.4 1.5 8.1 2.1 14.9 1.6 17.4 6.2 31.3 12.4 37l2.6 2.4 1.5-3.6c1-2.4 1.9-9.8 2.5-21.1.6-9.6 1.9-22.7 3-29.1 1.1-6.4 1.8-12 1.5-12.6-.8-1.2-8.2-1.2-9 .1-1.1 1.7-5.4 1.1-6.5-.9-1.6-3.1-1.2-6.9.9-8.3 1.7-1.2 1.8-1.6.6-3.8-1.5-2.7-1.4-2.7-3.1 2.8-.7 2.4-2.9.6-3.5-2.9-.4-1.9-.7-3.1-.8-2.8zM172.5 342.5c-6.9 3-13.4 7.9-12.2 9.1.7.8 7.2-2.4 9.1-4.5 1.4-1.5 2.3-1.8 3.7-1.1 1.3.7 2 .6 2.6-.3.4-.8 2.5-1.7 4.7-2 4.7-.7 5.2-1.2 3.6-3.2-1.7-2.1-2.4-1.9-11.5 2zM191.6 342c-1.5 1-5.4 2.4-8.6 3.1-4.7 1-5.6 1.6-5.2 3.1.5 2 1.7 2.4 2.7.8 1-1.5 13.1-4.9 15.5-4.3 1.8.5 2.1.2 1.8-1.8-.4-3-2.5-3.3-6.2-.9z"/><path d="M315.7 342.7c-3.4.9.2 3.3 4.9 3.3s5.9-1.4 2-2.4c-1.3-.3-3-.8-3.8-1-.7-.2-2.1-.2-3.1.1zM199.9 345l-2.4 1.9 3.7-1.1c2.1-.6 3.5-1.5 3.2-2-.8-1.3-2-1-4.5 1.2zM124.6 346.5c-5.2 1.8-12 8.7-14.7 14.8-3.1 7.4-3.3 14.2-1 32 1.2 8.7 2.1 20.9 2.1 27.1 0 10.5.2 11.4 2.3 13.4 1.3 1.2 2.7 2.2 3.2 2.2.4 0 .4-9.8-.1-21.8-1.2-31.7-1.1-44.9.5-50.5 1.8-6.1 6.4-11.1 11.8-12.7 3.5-1.1 4.6-1 7.3.4 4.2 2 4.3 2 3-.4-2.4-4.5-8.7-6.5-14.4-4.5zM310 348c0 3.5 2.2 4.9 4.5 3 1-.8 3.2-1.1 6-.8 3.4.4 4.5.2 4.5-.8s-1.3-1.4-4.4-1.4c-2.6 0-4.8-.6-5.6-1.5-.7-.8-2.1-1.5-3.1-1.5-1.4 0-1.9.7-1.9 3zM192 347c-2.1 1.3-.7 2.2 2.5 1.4 2-.5 2.3-.9 1.3-1.5-1.6-1.1-2-1.1-3.8.1zM170.2 349c-1.3 2.2-14.3 7.3-17.4 6.8-1.7-.2-2.4.2-2.6 2-.4 2.7 2.2 4 4.4 2.1 2.4-2 14.6-6.9 17.1-6.9 1.8 0 2.3-.6 2.3-2.4 0-3-2.3-4-3.8-1.6zM211.7 347.7c-.4.3-.7 1.3-.7 2.1 0 1.1.9 1.2 4.3.7 2.3-.4 5.1-1.4 6.2-2.1 1.7-1.3 1.4-1.4-3.6-1.4-3.1 0-5.9.3-6.2.7zM183.4 350.1c-2.1 1.1-4.6 1.8-5.6 1.6-1-.3-1.8.3-2.1 1.4-.3 1.2-1.4 1.9-3.1 1.9-3.6 0-10.6 3-10.6 4.5 0 .7.6 1.8 1.4 2.4 1.7 1.4 7.5-.5 9.4-3.1 1.8-2.5 4.7-2.3 6.8.4 1.2 1.7 1.5 1.8 1 .5-1.1-3.2 1.1-5.7 4.9-5.7 3 0 3.5-.3 3.5-2.4 0-3.5-1.2-3.8-5.6-1.5z"/><path d="M202.5 350.9c-1.3 1.2-13.3 4.9-16.9 5.3-3.1.3-4.1 1.5-2.8 3.5.6.9 2.4.6 7.2-1.4 3.6-1.4 8.6-2.8 11.3-3.1 4.8-.5 5.2-.8 4.1-3.6-.7-1.8-1.6-2-2.9-.7zM126.3 355c-3.2 1.9-6.4 7.1-7.7 12.2-.6 2.5-.4 2.8 2.1 2.8 1.8 0 3.3-.8 4.1-2.1.9-1.4 1.9-1.8 3.2-1.4 1.2.4 2 .2 2-.5 0-.6 1-1.5 2.3-2 1.2-.5 1.6-.9 1-.9-1.7-.1-1.6-4.1.2-6.5 2.9-3.9-1.8-5-7.2-1.6z"/><path d="M135.6 357.2c-2.1 2.9-2 3.8.2 3.8 2.4-.1 5.2-2.4 5.2-4.4 0-2.4-3.6-2-5.4.6zM209.8 357.6c-1.6.8-2.8 1.9-2.8 2.4 0 1.6 1.3 1.2 4.5-1.5 3.3-2.7 2.5-3.2-1.7-.9zM173.8 360.7c-2.5 2.4-10.7 5.3-15 5.3-3.1 0-3.8.4-3.8 1.9 0 2.7 1.8 3.6 3.8 1.8 2.2-1.9 13.4-5.7 16.8-5.7 2 0 2.5-.4 2.2-2.2-.4-2.8-1.9-3.2-4-1.1zM140.2 361.2c-3 3 .1 6.8 4.2 5.2 2.4-.9.4-6.3-2.4-6.4-.4 0-1.1.5-1.8 1.2zM157.4 361.6c.3.9.6 1.8.6 2 0 .2.7.4 1.5.4 1.3 0 1.4-.4.5-2-1.3-2.4-3.5-2.7-2.6-.4zM135 363.9c0 .6.5 1.3 1 1.6.6.3 1-.1 1-.9 0-.9-.4-1.6-1-1.6-.5 0-1 .4-1 .9zM297.2 367c0 1.4.2 1.9.5 1.2.2-.6.2-1.8 0-2.5-.3-.6-.5-.1-.5 1.3zM131.8 368.5c-.6 3.2 1.4 6 3.6 5.2 1.8-.7 2.1-3 .6-5.8-1.5-2.7-3.7-2.4-4.2.6zM164.8 368.7c-6.1 2.5-4.5 4 3.7 3.4 3.7-.3 4.8-1.3 3.9-3.4-.7-2-2.6-2-7.6 0zM125.2 370c-.8 1.3-2.3 2-4.2 2-2.4 0-3 .4-3 2.1 0 1.9.4 2 3.4 1.5 1.9-.4 4.5-.1 6 .5 3.5 1.6 4.1.7 2.4-3.8-1.8-4.4-2.9-5-4.6-2.3z"/><path d="M138.8 371.2c-.3 2.9-1.1 3.8-4.8 5.2-.8.3-2.3 1.1-3.2 1.8-1.3 1-2.2.9-4.1-.1-1.8-1-3.3-1.1-5.4-.4-2.5.8-2.8 1.5-3.1 5.6l-.3 4.6 5.1-2.1c2.8-1.2 5.5-2.9 6.1-4 .5-1 1.8-1.8 2.8-1.8 1 0 2.4-.7 3.2-1.6.8-1 2.4-1.4 4.5-1.2 3.1.4 3.1.3 1.7-1.8-1.1-1.7-1.2-2.8-.4-4.2.8-1.5.7-2.1-.4-2.5-1-.4-1.5.3-1.7 2.5zM146.3 369.1c-1.2.4-2.6 1.7-3.2 2.7-1.4 2.7.8 4.4 5.1 4 2.7-.2 3.4-.8 3.6-3 .4-3.2-2.2-5-5.5-3.7zM179.3 371.1c-1.3 1.3-13.3 4-14.5 3.3-1.2-.7-4.8.6-4.8 1.7 0 1 9.9.2 17.5-1.5 3.1-.7 5-1.7 5-2.5 0-1.9-1.8-2.4-3.2-1zM295.2 376.5c-2.1 10.9-2.3 13.2-1.4 11 .6-1.3 1.1 1.4 1.4 8.6.5 8.6 1 11.4 3.1 15.5 4 7.8 9.9 11.9 13.7 9.5 1.2-.9 1.1-1.4-1.2-3.8-6.4-6.8-11.3-21.7-12.4-37.4-.4-5.4-1-9.9-1.4-9.9-.3 0-1.2 2.9-1.8 6.5zM154 374.4c0 1.3.7 2.9 1.5 3.6 2.1 1.7 1.9 5-.6 7.6-1.9 2-1.9 2.7-1 12.4 2.2 20.6.6 35.9-4.3 43.2-5.9 8.8-18.5 5.6-26-6.5l-3.1-5.1-.5 4.5c-.6 5.2-.7 5.2 12.5 14 10.1 6.8 33.2 18.4 44.3 22.3l7.3 2.6-3.2-4.6c-1.7-2.5-4.2-7.2-5.5-10.4-2.3-5.6-2.9-9.5-6.4-40-1-8.7-3.5-20.6-6.1-28.8-.6-1.7-1.7-3.2-2.5-3.2-2.1 0-2.9-2.7-1.3-4.6 1-1.3 1-1.7-.1-2.4-.7-.4-1.1-1.7-.7-2.9.3-1.4-.1-2.4-1.3-3.1-2.7-1.4-3-1.3-3 1.4zM201 376.5c-2.2 2.7-.5 3.4 2.3.9 2.4-2.1 2.5-2.4.9-2.4-1.1 0-2.5.7-3.2 1.5zM168.8 377.7c-7.2.6-5.8 2.3 1.8 2.3 4.8 0 6.5-.3 6.2-1.3-.5-1.4-1.5-1.5-8-1z"/><path d="M144.7 382.1c.7 4.8-1 7.3-4.5 6.4-1.8-.4-2.5-.1-2.9 1.5-.6 2.1-1.2 2.4-5.1 2-1.3-.1-5 .8-8.3 2-5.6 2.2-5.8 2.3-5.2 5.4 1.7 9.6 3.6 13.9 8.3 18.8 4.4 4.5 5.2 5 8 4.4 9-1.8 13.3-9.3 13.8-24.5.4-8.8.2-10.5-1.2-11.3-1.8-1-2.2-5.3-.6-6.3s1.2-2.1-.9-2.2c-1.6-.1-1.8.4-1.4 3.8zM191 379c-.8.5-2.7 1-4.2 1-1.6 0-2.8.5-2.8 1.1 0 .8 1.1.9 3.1.5 1.7-.3 4.2-.6 5.5-.6 1.5 0 2.4-.6 2.4-1.5 0-1.7-1.8-1.9-4-.5z"/><path d="M136.5 379.9c-1.1 1.8 1.9 6.6 4 6.6 1.6 0 2-.7 2-3.5 0-3-.3-3.5-2.7-3.8-1.4-.2-2.9.2-3.3.7zM149.8 380.1c-2 1.1-2.4 4.4-.8 5.4.6.4 2.2-.1 3.6-1 4.3-2.8 1.6-7-2.8-4.4zM169 381.7c-4.1.2-7.9.8-8.5 1.4-.6.6 2.7.8 9 .6 6.6-.2 10-.7 10.3-1.5.2-.7-.4-1.1-1.5-1-1 .1-5.2.4-9.3.5zM129.9 384c-.8 1-3.6 2.8-6.4 3.8-3.5 1.4-5.1 2.6-5.3 4.1-.4 2.6-.5 2.6 5.3.1 2.6-1.1 6.2-2 8.1-2 2.8 0 3.4-.4 3.4-2.1 0-2.4-1.7-5.9-2.9-5.9-.5 0-1.5.9-2.2 2zM168.2 385.9c-1.1.7-.9 2.6 1.1 10.8 1.4 5.5 3.3 16 4.1 23.4 3.9 32 4.9 36.2 11.2 47.6 2.6 4.7 4.2 6.4 6.7 7.2 4.2 1.3 23.9 5.3 24.3 4.9.2-.2-3.7-5.8-8.7-12.3-15.6-20.9-19.3-29.9-23.4-57.7-3.2-21.8-3.5-23.1-6.6-23.9-3.5-1-7.2-1-8.7 0zM292.1 392.6c0 1.1.3 1.4.6.6.3-.7.2-1.6-.1-1.9-.3-.4-.6.2-.5 1.3zM147 417.5c-3.6 6.8-13.4 9.5-19.3 5.3-3.3-2.4-3.2-2.1 2 5.8 4.1 6.4 7.8 8.2 12.1 6 1.6-.8 3.6-3 4.5-4.8 1.4-3.1 3.4-14.8 2.5-14.8-.3 0-1.1 1.1-1.8 2.5zM313 431.6c0 6.8-2.7 14.4-7.9 22.3-2.8 4.2-6.2 10.9-7.5 14.9l-2.5 7.3 2.2-.6c1.2-.4 5.2-1.6 8.8-2.7l6.6-2.1.6-6.9c.4-5 1.5-8.5 3.8-13.1 5.8-11.1 6.7-13.2 7.3-16.2.9-4.3-.5-5.7-6.3-6.3l-5.1-.5v3.9z"/><path d="M149.1 430.1c0 .9-1.4 3.1-3 4.8-4.9 5.2-13.4 4-18.8-2.9-1.7-2.1-1.6-.5.2 3 1.9 3.7 7.3 7.8 11.2 8.6 2.3.4 3.6 0 6.1-2 3.2-2.8 5.7-8.4 4.9-11.3-.4-1.5-.5-1.6-.6-.2zM327 433.3c0 3.4-1.1 6.5-4.4 12.9-5.7 10.9-8.9 22.8-6.1 22.8 3.7 0 32.8-14.5 39-19.4l2.8-2.2-7-7c-3.9-3.8-7.5-7.8-8-8.8-.8-1.5-2.5-2-8.7-2.4l-7.6-.5v4.6z"/></svg>